<?xml version="1.0" encoding="UTF-8" standalone="no"?>
<svg width="24px" height="16px" viewBox="0 0 24 16" version="1.1" xmlns="http://www.w3.org/2000/svg" xmlns:xlink="http://www.w3.org/1999/xlink" xmlns:sketch="http://www.bohemiancoding.com/sketch/ns">
    <!-- Generator: Sketch 3.0.3 (7891) - http://www.bohemiancoding.com/sketch -->
    <title>laptop</title>
    <desc>Created with Sketch.</desc>
    <defs></defs>
    <g id="Page-1" stroke="none" stroke-width="1" fill="none" fill-rule="evenodd" sketch:type="MSPage">
        <g id="Icons-Hardware" sketch:type="MSLayerGroup" transform="translate(0.000000, -129.000000)" fill="#000000">
            <g id="laptop" transform="translate(0.000000, 129.000000)" sketch:type="MSShapeGroup">
                <path d="M20,14 C21.1,14 22,13.1 22,12 L22,2 C22,0.9 21.1,0 20,0 L4,0 C2.9,0 2,0.9 2,2 L2,12 C2,13.1 2.9,14 4,14 L0,14 L0,16 L24,16 L24,14 L20,14 L20,14 Z M4,2 L20,2 L20,12 L4,12 L4,2 L4,2 Z" id="Shape"></path>
            </g>
        </g>
    </g>
</svg>